<svg width="572" height="221" viewBox="0 0 572 221" fill="none" xmlns="http://www.w3.org/2000/svg">
<path d="M213 109C213 161.467 170.467 204 118 204C65.5329 204 23 161.467 23 109C23 56.5329 65.5329 14 118 14C170.467 14 213 56.5329 213 109Z" fill="black"/>
<g filter="url(#filter0_d_8_29)">
<path d="M208 109C208 158.706 167.706 199 118 199C68.2943 199 28 158.706 28 109C28 59.2943 68.2943 19 118 19C167.706 19 208 59.2943 208 109Z" fill="black"/>
</g>
<g filter="url(#filter1_d_8_29)">
<path d="M198 109C198 153.183 162.183 189 118 189C73.8171 189 38 153.183 38 109C38 64.8171 73.8171 29 118 29C162.183 29 198 64.8171 198 109Z" fill="#EBD564"/>
</g>
<path d="M125.422 108.24L125.993 108.323V107.745V95.7332C125.993 93.1925 128.043 91.1366 130.567 91.1366H144.099C146.623 91.1366 148.673 93.1925 148.673 95.7332C148.673 98.2738 146.623 100.33 144.099 100.33H135.642H135.142V100.83V119.517C135.142 125.811 130.062 130.909 123.801 130.909C117.54 130.909 112.461 125.811 112.461 119.517C112.461 113.224 117.54 108.125 123.801 108.125C124.352 108.125 124.893 108.164 125.422 108.24ZM123.801 117.318C122.589 117.318 121.61 118.305 121.61 119.517C121.61 120.73 122.589 121.716 123.801 121.716C125.014 121.716 125.993 120.73 125.993 119.517C125.993 118.305 125.014 117.318 123.801 117.318Z" fill="black" stroke="black"/>
<path d="M168.172 84.1816L168.293 84.3635L168.508 84.3985C168.955 84.471 169.398 84.6117 169.824 84.826L176.59 88.2238C176.649 88.2534 176.708 88.2844 176.766 88.3168L184.786 92.792C197.515 99.8947 197.114 118.419 184.091 124.959L91.3026 171.556C79.2671 177.601 65.1 168.812 65.1 155.288V62.7099C65.1 49.4003 78.8614 40.6034 90.8621 46.2282L122.346 60.9848L122.352 60.9879L122.463 61.0418L122.469 61.0447L128.251 63.9487L128.368 64.0073L128.498 64.0014C129.184 63.9704 129.874 63.9547 130.567 63.9547C146.254 63.9547 160.074 71.9859 168.172 84.1816ZM112.828 67.5871L113.852 67.1476L112.843 66.6749L86.995 54.5597C81.0532 51.7747 74.249 56.1326 74.249 62.7099V155.288C74.249 161.972 81.254 166.325 87.2129 163.333L111.272 151.251L112.186 150.791L111.263 150.352C95.9726 143.081 85.3978 127.446 85.3978 109.324C85.3978 90.5922 96.6997 74.5119 112.828 67.5871ZM123.77 144.858L123.937 144.89L124.089 144.814L162.728 125.41L162.879 125.334L162.953 125.182C165.28 120.398 166.588 115.021 166.588 109.324C166.588 89.3466 150.463 73.1479 130.567 73.1479C110.672 73.1479 94.5466 89.3466 94.5466 109.324C94.5466 126.966 107.126 141.669 123.77 144.858ZM174.826 118.429L174.621 119.437L175.54 118.975L180 116.736C186.442 113.501 186.64 104.342 180.345 100.829L175.172 97.9434L174.172 97.385L174.443 98.4984C175.288 101.967 175.737 105.593 175.737 109.324C175.737 112.441 175.423 115.487 174.826 118.429Z" fill="black"/>
<path d="M91.3026 171.556L184.091 124.959C197.114 118.419 197.515 99.8947 184.786 92.792L176.766 88.3168C176.708 88.2844 176.649 88.2534 176.59 88.2238L169.824 84.826C169.398 84.6117 168.955 84.471 168.508 84.3985L168.293 84.3635L168.172 84.1816C160.074 71.9859 146.254 63.9547 130.567 63.9547C129.874 63.9547 129.184 63.9704 128.498 64.0014L128.368 64.0073L128.251 63.9487L122.469 61.0447L122.463 61.0418L122.352 60.9879L122.346 60.9848L90.8621 46.2282C78.8614 40.6034 65.1 49.4003 65.1 62.7099V155.288C65.1 168.812 79.2671 177.601 91.3026 171.556ZM91.3026 171.556L91.4781 171.906M112.828 67.5871L113.852 67.1476L112.843 66.6749L86.995 54.5597C81.0532 51.7747 74.249 56.1326 74.249 62.7099V155.288C74.249 161.972 81.254 166.325 87.2129 163.333L111.272 151.251L112.186 150.791L111.263 150.352C95.9726 143.081 85.3978 127.446 85.3978 109.324C85.3978 90.5922 96.6997 74.5119 112.828 67.5871ZM123.77 144.858L123.937 144.89L124.089 144.814L162.728 125.41L162.879 125.334L162.953 125.182C165.28 120.398 166.588 115.021 166.588 109.324C166.588 89.3466 150.463 73.1479 130.567 73.1479C110.672 73.1479 94.5466 89.3466 94.5466 109.324C94.5466 126.966 107.126 141.669 123.77 144.858ZM174.826 118.429L174.621 119.437L175.54 118.975L180 116.736C186.442 113.501 186.64 104.342 180.345 100.829L175.172 97.9434L174.172 97.385L174.443 98.4984C175.288 101.967 175.737 105.593 175.737 109.324C175.737 112.441 175.423 115.487 174.826 118.429Z" stroke="black"/>
<path d="M218.8 118H242.78V161H218.8V118Z" fill="black"/>
<path d="M544 142H219V161H544V142Z" fill="black"/>
<path d="M262.837 139L244.477 112.36C243.837 111.48 243.437 109.56 243.277 106.6H242.797V139H218.797V64H241.357L259.717 90.64C260.357 91.52 260.757 93.44 260.917 96.4H261.397V64H285.397V139H262.837ZM347.23 117.52L349.03 137.68C343.99 139.76 337.67 140.8 330.07 140.8C322.47 140.8 316.35 140 311.71 138.4C307.15 136.8 303.55 134.28 300.91 130.84C298.27 127.4 296.43 123.36 295.39 118.72C294.35 114.08 293.83 108.36 293.83 101.56C293.83 94.76 294.35 89.04 295.39 84.4C296.43 79.68 298.27 75.6 300.91 72.16C306.03 65.52 315.43 62.2 329.11 62.2C332.15 62.2 335.71 62.52 339.79 63.16C343.95 63.72 347.03 64.44 349.03 65.32L345.43 83.68C340.23 82.56 335.47 82 331.15 82C326.83 82 323.83 82.4 322.15 83.2C320.47 84 319.63 85.6 319.63 88V119.44C322.75 120.08 325.91 120.4 329.11 120.4C335.91 120.4 341.95 119.44 347.23 117.52ZM354.43 137.68L357.79 117.88C365.15 119.72 371.75 120.64 377.59 120.64C383.51 120.64 388.27 120.4 391.87 119.92V113.92L381.07 112.96C371.31 112.08 364.59 109.76 360.91 106C357.31 102.16 355.51 96.52 355.51 89.08C355.51 78.84 357.71 71.8 362.11 67.96C366.59 64.12 374.15 62.2 384.79 62.2C395.43 62.2 405.03 63.2 413.59 65.2L410.59 84.4C403.15 83.2 397.19 82.6 392.71 82.6C388.23 82.6 384.43 82.8 381.31 83.2V89.08L389.95 89.92C400.43 90.96 407.67 93.48 411.67 97.48C415.67 101.4 417.67 106.88 417.67 113.92C417.67 118.96 416.99 123.24 415.63 126.76C414.27 130.2 412.63 132.84 410.71 134.68C408.87 136.44 406.23 137.8 402.79 138.76C399.35 139.72 396.31 140.28 393.67 140.44C391.11 140.68 387.67 140.8 383.35 140.8C372.95 140.8 363.31 139.76 354.43 137.68ZM471.088 111.16H450.688V139H426.688V64H475.888L472.888 83.2H450.688V93.28H471.088V111.16ZM503.575 64L510.175 90.4H511.015L517.735 64H544.255L522.655 118.6V139H498.655V118.6L477.055 64H503.575Z" fill="black"/>
<mask id="mask0_8_29" style="mask-type:luminance" maskUnits="userSpaceOnUse" x="28" y="19" width="524" height="180">
<path d="M552 19H28V199H552V19Z" fill="white"/>
</mask>
<g mask="url(#mask0_8_29)">
</g>
<defs>
<filter id="filter0_d_8_29" x="24" y="19" width="188" height="188" filterUnits="userSpaceOnUse" color-interpolation-filters="sRGB">
<feFlood flood-opacity="0" result="BackgroundImageFix"/>
<feColorMatrix in="SourceAlpha" type="matrix" values="0 0 0 0 0 0 0 0 0 0 0 0 0 0 0 0 0 0 127 0" result="hardAlpha"/>
<feOffset dy="4"/>
<feGaussianBlur stdDeviation="2"/>
<feComposite in2="hardAlpha" operator="out"/>
<feColorMatrix type="matrix" values="0 0 0 0 0 0 0 0 0 0 0 0 0 0 0 0 0 0 0.25 0"/>
<feBlend mode="normal" in2="BackgroundImageFix" result="effect1_dropShadow_8_29"/>
<feBlend mode="normal" in="SourceGraphic" in2="effect1_dropShadow_8_29" result="shape"/>
</filter>
<filter id="filter1_d_8_29" x="34" y="29" width="168" height="168" filterUnits="userSpaceOnUse" color-interpolation-filters="sRGB">
<feFlood flood-opacity="0" result="BackgroundImageFix"/>
<feColorMatrix in="SourceAlpha" type="matrix" values="0 0 0 0 0 0 0 0 0 0 0 0 0 0 0 0 0 0 127 0" result="hardAlpha"/>
<feOffset dy="4"/>
<feGaussianBlur stdDeviation="2"/>
<feComposite in2="hardAlpha" operator="out"/>
<feColorMatrix type="matrix" values="0 0 0 0 0 0 0 0 0 0 0 0 0 0 0 0 0 0 0.25 0"/>
<feBlend mode="normal" in2="BackgroundImageFix" result="effect1_dropShadow_8_29"/>
<feBlend mode="normal" in="SourceGraphic" in2="effect1_dropShadow_8_29" result="shape"/>
</filter>
</defs>
</svg>
